<svg width="150" height="116" viewBox="0 0 150 116" fill="none" xmlns="http://www.w3.org/2000/svg">
<g clip-path="url(#clip0_1_341)">
<path fill-rule="evenodd" clip-rule="evenodd" d="M42.4801 25.3606C42.744 25.2287 43.0078 25.4926 43.1398 25.7564C43.1398 25.7564 43.5355 27.3395 44.0632 27.3395C44.0632 27.6034 44.0632 27.8672 43.7994 27.9991C42.8759 28.3949 40.897 28.9226 38.7862 28.9226C32.4537 28.9226 27.9683 24.4371 27.9683 18.3685C27.9683 11.9042 32.7176 7.81445 39.182 7.81445C40.1055 7.81445 41.9524 8.0783 43.1398 8.34216C43.2717 8.47408 43.5355 8.73794 43.5355 9.00179V13.3554C43.5355 13.6192 43.2717 13.8831 43.0078 13.8831H41.8205C41.5567 13.8831 41.4247 13.7511 41.2928 13.4873L40.897 11.7722C40.6332 10.8488 39.8416 10.453 38.2585 10.453C33.773 10.453 32.3218 14.015 32.3218 17.7089C32.3218 21.9305 34.3007 25.8883 39.3139 25.8883C40.3693 26.0203 41.8205 25.7564 42.4801 25.3606ZM52.5065 26.2841C54.0896 26.2841 55.145 25.0968 55.145 23.9094L55.0131 21.5348C55.0131 21.4028 55.0131 21.2709 54.7493 21.2709C51.3192 21.2709 50.1318 22.4583 50.1318 24.1733C49.9999 25.3606 51.0553 26.2841 52.5065 26.2841ZM60.9498 26.548C60.9498 26.2841 60.6859 26.1522 60.4221 26.1522C60.1582 26.2841 59.8944 26.2841 59.6305 26.2841C58.9709 26.2841 58.839 25.8883 58.839 25.3606V18.3685C58.839 14.2788 56.3324 12.6957 52.6384 12.6957C50.7915 12.6957 48.8126 13.0915 47.4933 13.6192C47.2295 13.7511 47.0975 14.015 47.2295 14.2788L47.6252 16.1258C47.7572 16.5216 48.021 16.5216 48.2849 16.3897C49.2084 15.8619 50.3957 15.5981 51.583 15.5981C53.5619 15.5981 55.0131 16.3897 55.0131 18.1047V18.6324C55.0131 18.8962 54.8812 19.1601 54.7493 19.1601C50.1318 19.1601 46.306 20.6113 46.306 24.8329C46.306 27.2076 48.021 29.0546 50.7915 29.0546C53.2981 29.0546 54.4854 27.9991 55.4089 26.9437H55.5408C55.6727 28.1311 56.3324 29.0546 58.0474 29.0546C58.9709 29.0546 60.554 28.7907 60.8179 28.5269C61.0817 28.3949 61.0817 28.263 61.0817 27.9991L60.9498 26.548ZM71.1081 15.73C69.525 15.73 68.3377 16.6535 68.3377 18.1047V24.1733C68.3377 25.4926 69.2611 26.2841 70.8442 26.2841C73.7466 26.2841 74.802 23.3817 74.802 20.7432C74.6701 18.2366 73.6147 15.73 71.1081 15.73ZM70.7123 34.4635C70.9762 34.4635 71.24 34.1997 71.24 33.9358V33.1443C71.24 32.8804 71.1081 32.6166 70.8442 32.6166L68.9973 32.3527C68.7334 32.2208 68.3377 31.9569 68.3377 31.4292V28.1311C68.4696 28.1311 68.7334 28.1311 68.9973 28.1311C69.3931 28.1311 69.6569 28.263 70.0527 28.263C75.8574 28.263 78.7598 24.701 78.7598 19.5559C78.7598 15.3342 76.2532 12.4319 72.6912 12.4319C70.3165 12.4319 68.9973 13.6192 67.9419 14.8065H67.81L67.5461 13.3554C67.5461 13.0915 67.2822 12.6957 66.8865 12.8276L62.0052 13.3554C61.7413 13.3554 61.4775 13.6192 61.4775 13.8831V14.6746C61.4775 14.9385 61.6094 15.0704 61.8733 15.2023L63.3245 15.4662C63.8522 15.5981 63.9841 16.1258 63.9841 16.3897V31.825C63.9841 32.4846 63.7202 32.7485 63.3245 32.7485L62.1371 33.1443C61.8733 33.2762 61.7413 33.4081 61.7413 33.672V34.4635C61.7413 34.7274 62.0052 34.9912 62.2691 34.9912L70.7123 34.4635ZM90.5012 25.7564C90.897 25.7564 91.1609 25.8883 91.1609 26.1522L91.6886 27.7353C91.6886 28.1311 91.6886 28.263 91.4247 28.3949C90.5012 28.9226 88.7862 29.1865 87.5989 29.1865C84.5646 29.1865 82.4537 27.4714 82.4537 24.4371V16.5216C82.4537 16.2577 82.3218 16.1258 82.058 16.1258H79.9472C79.6833 16.1258 79.6833 15.9939 79.6833 15.73L79.8152 14.015C79.8152 14.015 79.9472 13.7511 80.0791 13.7511H81.7941C82.1899 13.7511 82.1899 13.4873 82.1899 13.2234V11.2445C82.1899 10.8488 82.3218 10.5849 82.7176 10.453L85.62 9.52949C86.0158 9.39757 86.1477 9.66142 86.1477 10.0572V13.2234C86.1477 13.3553 86.2796 13.6192 86.5435 13.6192H90.3693C90.5012 13.6192 90.6332 13.7511 90.6332 13.8831V15.73C90.6332 15.73 90.5012 15.9939 90.3693 15.9939H86.5435C86.2796 15.9939 86.0158 16.1258 86.0158 16.3897V23.5137C86.0158 25.2287 86.9392 26.2841 88.6543 26.2841C89.182 26.1522 89.8416 26.0203 90.5012 25.7564ZM102.111 17.1812C102.111 19.292 99.9999 19.9517 98.021 19.9517C97.4933 19.9517 97.0975 19.9517 96.8337 19.8197C96.5698 19.8197 96.4379 19.6878 96.4379 19.424C96.306 17.4451 97.3614 14.8065 99.7361 14.8065C101.187 14.8065 102.111 15.8619 102.111 17.1812ZM104.749 25.2287C105.013 24.9648 105.277 25.2287 105.409 25.4926L105.541 27.0757C105.673 27.3395 105.541 27.6034 105.277 27.7353C104.09 28.5269 102.243 28.9226 100.528 28.9226C95.2506 28.9226 92.4801 25.6245 92.4801 20.7432C92.4801 16.1258 96.0421 12.6957 100.396 12.6957C103.298 12.6957 106.2 14.2788 106.2 17.3131C106.2 20.8751 102.507 22.1944 99.3403 22.1944C98.9445 22.1944 98.5487 22.1944 98.153 22.1944C97.7572 22.1944 97.4933 22.1944 97.2295 22.1944C96.9656 22.1944 96.8337 22.3263 96.8337 22.5902C97.0975 24.9648 99.4722 26.416 101.451 26.416C102.902 26.416 103.958 25.8883 104.749 25.4926C104.749 25.2287 104.749 25.2287 104.749 25.2287ZM116.623 28.6588C116.886 28.6588 117.15 28.3949 117.15 28.1311V27.3395C117.15 27.0757 117.018 26.9437 116.755 26.8118L114.908 26.548C114.644 26.548 114.248 26.1522 114.248 25.6245V18.7643C114.248 17.1812 115.567 16.2577 117.018 16.2577C117.678 16.2577 118.338 16.3897 118.865 16.5216C119.129 16.6535 119.525 16.3897 119.525 16.2577L120.185 13.4873C120.317 13.0915 120.185 12.8276 119.921 12.8276C119.525 12.5638 118.997 12.5638 118.602 12.5638C116.623 12.5638 115.303 13.8831 114.116 15.4662H113.984L113.72 13.3554C113.72 12.9596 113.456 12.6957 113.193 12.6957L108.311 13.3554C108.047 13.3554 107.784 13.6192 107.784 13.8831V14.6746C107.784 14.9385 107.915 15.0704 108.179 15.2023L109.631 15.4662C110.158 15.5981 110.29 16.1258 110.29 16.3897V25.8883C110.29 26.548 110.026 26.8118 109.631 26.8118L108.311 27.0757C108.047 27.2076 107.915 27.3395 107.915 27.6034V28.3949C107.915 28.6588 108.179 28.9226 108.443 28.9226H116.623V28.6588ZM130.475 28.1311C130.475 28.3949 130.211 28.6588 129.947 28.6588H121.768C121.504 28.6588 121.24 28.3949 121.24 28.1311V27.3395C121.24 27.0757 121.372 26.9437 121.636 26.8118L122.955 26.548C123.351 26.548 123.615 26.1522 123.615 25.6245V16.1258C123.615 15.73 123.483 15.3342 122.955 15.2023L121.504 14.9385C121.24 14.8065 121.108 14.6746 121.108 14.4108V13.6192C121.108 13.3553 121.372 13.0915 121.636 13.0915L126.517 12.4319C126.781 12.4319 127.045 12.6957 127.045 13.0915L127.309 15.4662H127.441C128.628 13.8831 130.079 12.5638 131.926 12.5638C132.322 12.5638 132.85 12.5638 133.245 12.8276C133.509 12.8276 133.641 13.0915 133.509 13.4873L132.85 16.2577C132.85 16.3897 132.454 16.6535 132.19 16.5216C131.662 16.3897 131.003 16.2577 130.343 16.2577C128.892 16.2577 127.572 17.1812 127.572 18.7643V25.6245C127.572 26.2841 127.968 26.548 128.232 26.548L130.079 26.8118C130.343 26.9437 130.475 27.0757 130.475 27.3395V28.1311ZM144.063 23.9094C144.063 25.0968 143.14 26.2841 141.425 26.2841C140.105 26.2841 138.918 25.3606 138.918 24.0414C138.918 22.3263 140.105 21.139 143.536 21.139C143.799 21.139 143.799 21.2709 143.799 21.4028L144.063 23.9094ZM149.34 26.1522C149.604 26.1522 149.868 26.2841 149.868 26.548L150.132 28.1311C150.132 28.3949 150.132 28.5269 149.868 28.6588C149.472 28.9226 148.021 29.1865 147.098 29.1865C145.514 29.1865 144.723 28.3949 144.591 27.0757H144.459C143.536 27.9991 142.216 29.1865 139.842 29.1865C137.071 29.1865 135.356 27.3395 135.356 24.9648C135.356 20.7432 139.182 19.292 143.799 19.292C143.931 19.292 144.063 19.0282 144.063 18.7643V18.1047C144.063 16.2577 142.612 15.5981 140.633 15.5981C139.446 15.5981 138.127 15.9939 137.335 16.3897C137.071 16.5216 136.807 16.5216 136.675 16.1258L136.28 14.2788C136.148 14.015 136.28 13.7511 136.543 13.6192C137.863 12.9596 139.842 12.6957 141.689 12.6957C145.383 12.6957 147.889 14.2788 147.889 18.3685V25.3606C147.889 26.0203 148.153 26.2841 148.813 26.2841C148.813 26.2841 149.076 26.2841 149.34 26.1522Z" fill="black"/>
<path fill-rule="evenodd" clip-rule="evenodd" d="M6.0686 17.4447H0.791557C0.659631 17.4447 0.527704 17.3127 0.659631 17.3127C0.527704 17.3127 0.527704 17.1808 0.527704 17.0489L0.659631 16.3892C0.791557 16.1254 0.791557 15.9935 0.791557 15.9935C0.791557 15.8615 0.923483 15.7296 0.923483 15.5977C0.923483 15.3338 1.05541 15.07 1.18734 14.8061C3.29815 7.02249 10.1583 0.953888 10.8179 0.294257C11.2137 0.162331 11.3456 0.162331 11.6095 0.294257C18.8654 6.75864 21.6359 13.223 21.8997 16.785V17.1808C21.8997 17.3127 21.7678 17.5766 21.504 17.5766H16.095C15.9631 17.5766 15.6992 17.5766 15.6992 17.3127C15.1715 15.07 13.1926 13.6188 11.0818 13.6188C8.83905 13.6188 6.99208 15.2019 6.46438 17.3127C6.33245 17.3127 6.33245 17.4447 6.0686 17.4447ZM15.8311 19.5555H21.2401C21.2401 19.5555 21.504 19.5555 21.2401 19.6874C21.372 19.6874 21.372 19.8193 21.372 19.9513L21.2401 20.6109C21.1082 20.7428 21.1082 20.8747 21.1082 20.8747C21.1082 21.0067 20.9763 21.1386 20.9763 21.2705C20.9763 21.5344 20.8443 21.7982 20.7124 22.0621C18.4697 29.8457 11.6095 36.0462 10.9499 36.7059C10.686 36.8378 10.5541 36.8378 10.2902 36.7059C3.16623 30.2415 0.263852 23.7771 0 20.2151V19.8193C0 19.6874 0.131926 19.4235 0.395778 19.4235H5.80475C5.93668 19.4235 6.20053 19.4235 6.20053 19.6874C6.72823 21.9301 8.70712 23.3813 10.8179 23.3813C13.0607 23.3813 14.9077 21.7982 15.4354 19.6874C15.4354 19.6874 15.5673 19.5555 15.8311 19.5555Z" fill="black"/>
</g>
<path d="M1.44 97.275H2.745V102.135H8.385V97.275H9.69V108H8.385V103.23H2.745V108H1.44V97.275ZM13.3978 97.275H14.7028V108H13.3978V97.275ZM23.0738 108.135C22.2438 108.135 21.5088 108 20.8688 107.73C20.2288 107.46 19.6838 107.085 19.2338 106.605C18.7938 106.115 18.4588 105.54 18.2288 104.88C17.9988 104.21 17.8838 103.485 17.8838 102.705V102.585C17.8838 101.805 18.0088 101.08 18.2588 100.41C18.5088 99.74 18.8638 99.16 19.3238 98.67C19.7838 98.18 20.3288 97.8 20.9588 97.53C21.5988 97.25 22.3038 97.11 23.0738 97.11C23.6038 97.11 24.1138 97.175 24.6038 97.305C25.0938 97.435 25.5338 97.64 25.9238 97.92C26.3238 98.19 26.6538 98.54 26.9138 98.97C27.1838 99.4 27.3588 99.915 27.4388 100.515H26.1338C25.9838 99.665 25.6338 99.06 25.0838 98.7C24.5438 98.33 23.8838 98.145 23.1038 98.145C22.4838 98.145 21.9338 98.255 21.4538 98.475C20.9738 98.685 20.5688 98.985 20.2388 99.375C19.9088 99.765 19.6588 100.23 19.4888 100.77C19.3188 101.31 19.2338 101.91 19.2338 102.57V102.69C19.2338 103.35 19.3138 103.955 19.4738 104.505C19.6438 105.045 19.8888 105.505 20.2088 105.885C20.5288 106.265 20.9288 106.56 21.4088 106.77C21.8888 106.98 22.4438 107.085 23.0738 107.085C23.6538 107.085 24.1538 106.995 24.5738 106.815C24.9938 106.635 25.3388 106.395 25.6088 106.095C25.8888 105.785 26.0938 105.425 26.2238 105.015C26.3638 104.595 26.4388 104.145 26.4488 103.665H23.3138V102.585H27.7238V103.38C27.7238 104.16 27.6088 104.845 27.3788 105.435C27.1588 106.025 26.8438 106.52 26.4338 106.92C26.0238 107.32 25.5338 107.625 24.9638 107.835C24.3938 108.035 23.7638 108.135 23.0738 108.135ZM30.8482 97.275H32.1532V102.135H37.7932V97.275H39.0982V108H37.7932V103.23H32.1532V108H30.8482V97.275ZM42.731 97.275H48.986V98.34H44.036V101.985H48.026V103.05H44.036V106.935H49.256V108H42.731V97.275ZM55.6179 108.135C54.8979 108.135 54.2879 108.045 53.7879 107.865C53.2979 107.675 52.8929 107.425 52.5729 107.115C52.2529 106.805 52.0079 106.445 51.8379 106.035C51.6779 105.625 51.5729 105.19 51.5229 104.73H52.7829C52.8229 105.05 52.8929 105.355 52.9929 105.645C53.0929 105.925 53.2479 106.175 53.4579 106.395C53.6679 106.605 53.9429 106.775 54.2829 106.905C54.6329 107.025 55.0779 107.085 55.6179 107.085C55.9579 107.085 56.2779 107.04 56.5779 106.95C56.8779 106.85 57.1379 106.71 57.3579 106.53C57.5779 106.35 57.7479 106.135 57.8679 105.885C57.9979 105.635 58.0629 105.36 58.0629 105.06C58.0629 104.76 58.0229 104.5 57.9429 104.28C57.8629 104.05 57.7229 103.855 57.5229 103.695C57.3329 103.535 57.0679 103.4 56.7279 103.29C56.3979 103.18 55.9779 103.085 55.4679 103.005C54.9079 102.915 54.4029 102.8 53.9529 102.66C53.5129 102.52 53.1379 102.34 52.8279 102.12C52.5179 101.89 52.2829 101.61 52.1229 101.28C51.9629 100.94 51.8829 100.53 51.8829 100.05C51.8829 99.64 51.9679 99.26 52.1379 98.91C52.3079 98.55 52.5429 98.24 52.8429 97.98C53.1529 97.72 53.5179 97.515 53.9379 97.365C54.3579 97.215 54.8229 97.14 55.3329 97.14C56.4129 97.14 57.2679 97.395 57.8979 97.905C58.5379 98.405 58.9129 99.135 59.0229 100.095H57.8529C57.7229 99.415 57.4579 98.93 57.0579 98.64C56.6579 98.34 56.0829 98.19 55.3329 98.19C54.5929 98.19 54.0329 98.355 53.6529 98.685C53.2829 99.005 53.0979 99.42 53.0979 99.93C53.0979 100.19 53.1279 100.425 53.1879 100.635C53.2579 100.835 53.3829 101.01 53.5629 101.16C53.7529 101.31 54.0129 101.445 54.3429 101.565C54.6829 101.675 55.1279 101.77 55.6779 101.85C56.2779 101.94 56.8029 102.06 57.2529 102.21C57.7029 102.36 58.0829 102.555 58.3929 102.795C58.7029 103.035 58.9329 103.33 59.0829 103.68C59.2429 104.03 59.3229 104.46 59.3229 104.97C59.3229 105.42 59.2279 105.84 59.0379 106.23C58.8579 106.61 58.6029 106.945 58.2729 107.235C57.9429 107.515 57.5479 107.735 57.0879 107.895C56.6379 108.055 56.1479 108.135 55.6179 108.135ZM64.3071 98.34H61.1871V97.275H68.7321V98.34H65.6121V108H64.3071V98.34ZM76.1705 97.275H79.3955C79.9055 97.275 80.3855 97.33 80.8355 97.44C81.2955 97.55 81.6955 97.725 82.0355 97.965C82.3755 98.205 82.6455 98.515 82.8455 98.895C83.0455 99.265 83.1455 99.72 83.1455 100.26V100.32C83.1455 100.76 83.0755 101.15 82.9355 101.49C82.7955 101.82 82.6055 102.105 82.3655 102.345C82.1255 102.575 81.8455 102.765 81.5255 102.915C81.2055 103.065 80.8605 103.175 80.4905 103.245L83.7755 108H82.3205L79.1255 103.335H77.4755V108H76.1705V97.275ZM79.4855 102.3C80.2555 102.3 80.8405 102.135 81.2405 101.805C81.6405 101.475 81.8405 100.98 81.8405 100.32V100.26C81.8405 99.9 81.7855 99.595 81.6755 99.345C81.5655 99.095 81.4105 98.895 81.2105 98.745C81.0105 98.595 80.7605 98.49 80.4605 98.43C80.1705 98.36 79.8455 98.325 79.4855 98.325H77.4755V102.3H79.4855ZM89.3952 97.275H91.1052L94.7352 108H93.4452L92.3952 104.91H87.9702L86.9352 108H85.7052L89.3952 97.275ZM88.3302 103.875H92.0502L90.1902 98.355L88.3302 103.875ZM98.6987 98.34H95.5787V97.275H103.124V98.34H100.004V108H98.6987V98.34ZM105.842 97.275H112.097V98.34H107.147V101.985H111.137V103.05H107.147V106.935H112.367V108H105.842V97.275ZM118.039 106.935C118.729 106.935 119.329 106.835 119.839 106.635C120.359 106.435 120.789 106.15 121.129 105.78C121.479 105.41 121.739 104.965 121.909 104.445C122.089 103.915 122.179 103.32 122.179 102.66V102.54C122.179 101.92 122.099 101.355 121.939 100.845C121.789 100.325 121.544 99.88 121.204 99.51C120.874 99.13 120.444 98.84 119.914 98.64C119.394 98.43 118.764 98.325 118.024 98.325H116.569V106.935H118.039ZM115.264 97.275H118.099C119.019 97.275 119.819 97.41 120.499 97.68C121.179 97.95 121.744 98.32 122.194 98.79C122.644 99.26 122.979 99.815 123.199 100.455C123.419 101.095 123.529 101.79 123.529 102.54V102.675C123.529 103.415 123.419 104.11 123.199 104.76C122.989 105.41 122.659 105.975 122.209 106.455C121.759 106.935 121.189 107.315 120.499 107.595C119.819 107.865 119.009 108 118.069 108H115.264V97.275Z" fill="black"/>
<g clip-path="url(#clip1_1_341)">
<path fill-rule="evenodd" clip-rule="evenodd" d="M9.97423 57L7.5708 64.3134H0L6.24891 68.9788L3.84548 76.4183L9.97423 71.7528L16.2231 76.4183L13.8197 68.9788L19.9485 64.3134H12.3777L9.97423 57Z" fill="black"/>
<path fill-rule="evenodd" clip-rule="evenodd" d="M36.2936 57L33.8902 64.3134H26.1992L32.328 68.9788L30.0447 76.4183L36.2936 71.7528L42.4224 76.4183L40.0189 68.9788L46.2678 64.3134H38.5769L36.2936 57Z" fill="black"/>
<path fill-rule="evenodd" clip-rule="evenodd" d="M63.5719 57L61.1685 64.3134H53.5977L59.8466 68.9788L57.4431 76.4183L63.5719 71.7528L69.8208 76.4183L67.4174 68.9788L73.5461 64.3134H65.9753L63.5719 57Z" fill="black"/>
<path fill-rule="evenodd" clip-rule="evenodd" d="M90.9703 57L88.6871 64.3134H80.9961L87.1248 68.9788L84.7214 76.4183L90.9703 71.7528L97.0991 76.4183L94.8158 68.9788L101.065 64.3134H93.3738L90.9703 57Z" fill="black"/>
<path fill-rule="evenodd" clip-rule="evenodd" d="M117.166 57L114.762 64.3134H107.191L113.32 68.9788L111.037 76.4183L117.166 71.7528L123.415 76.4183L121.011 68.9788L127.14 64.3134H119.449L117.166 57Z" fill="black"/>
</g>
<defs>
<clipPath id="clip0_1_341">
<rect width="150" height="37" fill="white"/>
</clipPath>
<clipPath id="clip1_1_341">
<rect width="128" height="20" fill="white" transform="translate(0 57)"/>
</clipPath>
</defs>
</svg>
