<svg width="80" height="32" viewBox="0 0 80 32" fill="none" xmlns="http://www.w3.org/2000/svg">
<g clip-path="url(#clip0_1_393)">
<path d="M12.8149 5.95636C12.5442 5.72004 12.2734 5.72003 11.9576 6.00361C10.4686 6.57081 7.67108 8.55604 6.99426 8.41428C8.12231 6.80718 9.34057 5.24735 10.7393 3.82933C11.3259 2.97851 10.5588 2.78944 10.4686 2.31677C10.2881 1.70229 10.3784 1.04055 10.5588 0.473342C10.8296 0.000668081 10.2881 -0.0938667 9.97226 0.0952026C6.31744 4.06566 3.20408 8.03614 0.316316 12.0538C-0.134897 12.6683 -0.0446541 13.141 0.271194 13.5191L1.80532 15.5516C2.12117 16.1189 2.6175 16.2134 3.2492 15.788L8.07718 12.3847C6.13698 15.6934 4.28699 19.4276 2.88823 23.9652C2.25653 25.9032 4.01626 28.8337 6.4077 31.9061C6.67841 32.237 7.21985 31.9061 6.85888 31.2444C4.55772 26.754 6.45282 19.8057 13.8527 9.54867C14.2136 9.12329 14.349 8.69785 14.0783 8.27246L12.8149 5.95636Z" fill="#1D1D1B"/>
<path d="M31.8559 11.8642L32.4875 9.31178C32.6229 8.93365 32.8937 8.74458 33.2546 8.69733H35.4204H36.0521L36.4131 7.51562H35.4655L32.4875 7.56288C31.8559 7.51563 31.3595 7.752 31.0437 8.50826L29.4193 15.1257L28.7876 17.7254C28.6071 18.2926 28.7425 18.7653 29.4193 18.9543C29.4644 18.9543 29.5547 19.0016 29.5998 19.0016H33.39L33.7058 17.8199H30.8181C30.5925 17.6308 30.412 17.6308 30.5022 17.0636L31.179 14.2749C31.2693 13.944 31.4498 13.7077 31.7656 13.7077H33.9766L34.2924 12.715H32.0363C31.7656 12.526 31.7205 12.2423 31.8559 11.8642Z" fill="#1D1D1B"/>
<path d="M36.3224 17.064C37.8114 10.9665 36.909 14.6061 38.2626 9.31208C38.398 8.93395 38.6687 8.74488 39.0297 8.69763H41.0601H41.7821L42.0528 7.75229L42.1431 7.46867H42.0528H41.0601H38.2175C37.5858 7.42141 37.0443 7.65773 36.7736 8.414L35.42 13.9443L34.5176 17.5839C34.3371 18.2456 34.4725 18.7183 35.3297 18.8601H35.3749H39.1199L39.4358 17.6784H36.548C36.4127 17.6784 36.2321 17.6312 36.3224 17.064Z" fill="#1D1D1B"/>
<path d="M21.794 13.4724L19.6282 11.4872C19.177 10.92 19.6282 8.79298 20.5758 8.74573H22.9671H23.7793L24.0501 7.61133H22.9671H19.9891C18.7258 7.84765 17.688 10.5891 18.1843 11.9126L20.3952 13.9924C20.7111 14.3705 20.7562 14.7014 20.7562 15.0795L20.1245 17.3484C19.9891 17.9156 19.6282 17.9156 19.177 17.9156H16.199L15.9282 19.0027H20.305C20.9818 18.9555 21.3879 18.53 21.4782 17.821L22.2001 14.9377C22.3806 14.276 22.155 13.8033 21.794 13.4724Z" fill="#1D1D1B"/>
<path d="M29.103 13.14L29.4189 11.7693L30.0957 8.88597C30.1859 8.1297 29.9603 7.70431 29.4189 7.60975C29.3286 7.5625 29.2383 7.5625 29.1481 7.5625H24.8616L23.0116 14.7944L21.9287 19.0012H23.0116H23.4177L26.0799 8.74415H27.8396C28.2006 8.83871 28.4262 9.02778 28.4262 9.40591L27.7042 12.5255C27.614 13.0455 27.2981 13.3764 26.7567 13.5654L25.4031 13.8491L25.1774 14.9362L28.1103 14.369C28.6067 14.2272 29.0128 13.8491 29.103 13.14Z" fill="#1D1D1B"/>
<path d="M44.7158 7.5625H42.956L42.0536 11.013L41.061 14.8416L39.978 19.0012H41.061H41.7378L42.0536 17.725L44.7158 7.5625Z" fill="#1D1D1B"/>
<path d="M60.3273 7.5625H59.2442H58.6124L55.5894 19.0012H57.3494L59.2442 11.8166L60.3273 7.5625Z" fill="#1D1D1B"/>
<path d="M68.043 14.2752C68.1332 13.9443 68.3137 13.708 68.6296 13.708H70.8404L71.1563 12.7153H68.8553C68.5845 12.5263 68.5394 12.2427 68.6748 11.8646L69.3517 9.31208C69.4871 8.93395 69.7573 8.74488 70.1183 8.69763H72.104H72.9163L73.1414 7.94136L73.2768 7.46867H73.1414H72.1491H69.3968C68.765 7.42141 68.2235 7.65773 67.9527 8.414L66.3281 15.0314L65.6968 17.6312C65.5163 18.1984 65.6517 18.6711 66.3281 18.8601C66.3732 18.8601 66.4635 18.9074 66.5086 18.9074H70.2989L70.6148 17.7257H67.6819C67.4563 17.5366 67.2758 17.5366 67.366 16.9694L68.043 14.2752Z" fill="#1D1D1B"/>
<path d="M79.1433 7.5625H73.954L73.0971 10.7767L72.1043 14.6053L70.9761 18.9539H72.1043H73.0971H76.2556C77.0222 18.9067 77.4735 18.4813 77.654 17.6777L80.0007 8.55509C80.0909 7.98789 79.775 7.60975 79.1433 7.5625ZM78.1053 9.64223L76.1653 16.7324C76.1202 17.2996 75.7591 17.6777 75.0371 17.725H73.1874C73.1422 17.725 73.0971 17.725 73.052 17.6777C72.8715 17.5832 72.8715 17.3468 72.9617 17.1105L73.052 16.7796L75.353 8.60239H77.6089C78.1956 8.64965 78.2858 9.02778 78.1053 9.64223Z" fill="#1D1D1B"/>
<path d="M60.6881 16.923L66.2378 9.50199L66.644 8.93479C67.1404 8.17853 66.9599 7.61133 66.2378 7.61133C66.2378 7.61133 66.2378 7.61133 66.1927 7.61133H61.1394L61.0943 8.65117H64.2076C64.6137 8.65117 64.8394 8.84023 64.5686 9.21837L59.244 16.5448L58.3419 17.7738C57.9809 18.341 58.1163 18.7664 58.7481 19.05H59.244H64.2527L64.5686 17.7738H60.7784C60.4173 17.6793 60.3722 17.2066 60.6881 16.923Z" fill="#1D1D1B"/>
<path d="M47.7836 7.60975L42.0531 18.8594L41.9629 19.0485H42.0531H43.3165L47.8287 10.0677L48.2347 10.1149L48.4604 12.6201C48.6408 13.2346 48.2347 13.1873 48.0994 13.1873H46.836L46.6104 14.1326L48.0994 14.1799C48.3701 14.2272 48.5055 14.369 48.4604 14.6526L48.7311 18.9067H50.2652L49.6335 7.5625L47.7836 7.60975Z" fill="#1D1D1B"/>
<path d="M52.6117 16.9214L55.0481 7.5625H53.2887L50.6715 17.6304C50.6264 18.1976 50.852 18.8121 51.5738 19.0012H55.0481L55.4092 17.7723L52.9276 17.725C52.6117 17.6777 52.4764 17.3941 52.6117 16.9214Z" fill="#1D1D1B"/>
</g>
<defs>
<clipPath id="clip0_1_393">
<rect width="80" height="32" fill="white"/>
</clipPath>
</defs>
</svg>
